<svg viewBox="0 0 30 30" xmlns="http://www.w3.org/2000/svg"><path d="m14 6c-.898437 0-1.5625.5-2.15625 1.15625-.589844.648438-1.070312 1.53125-1.3125 2.59375-.003906.011719.003906.019531 0 .03125-.261719 1-.632812 2.726563-.9375 4.21875-.699219-.605469-1.59375-1-2.59375-1-2.210937 0-4 1.789063-4 4 0 2.105469.542969 4.476563 2.53125 6.21875 1.988281 1.742188 5.234375 2.78125 10.46875 2.78125 5.238281 0 8.515625-1.058594 10.5-2.8125s2.5-4.128906 2.5-6.1875c0-2.210937-1.789062-4-4-4-.992187 0-1.894531.371094-2.59375.96875-.011719-.011719-.019531-.019531-.03125-.03125 0-.003906-.03125.003906-.03125 0-.355469-1.648437-.640625-3.035156-.875-4.15625-.238281-1.125-.742187-2.035156-1.34375-2.6875-.601562-.652344-1.265625-1.09375-2.125-1.09375-.816406 0-1.351562.417969-1.71875.6875-.128906.09375-.199219.160156-.28125.21875-.082031-.058594-.152344-.125-.28125-.21875-.367187-.269531-.902344-.6875-1.71875-.6875zm0 2c-.015625 0 .222656.082031.53125.3125.15625.113281.316406.238281.53125.375s.480469.3125.9375.3125.722656-.175781.9375-.3125.375-.261719.53125-.375c.308594-.230469.546875-.3125.53125-.3125-.058594 0 .308594.09375.65625.46875s.710938.976563.875 1.75c.277344 1.3125.679688 3.179688 1.03125 4.8125-.050781.035156-.09375.058594-.15625.09375-.675781.394531-1.988281.875-4.40625.875s-3.730469-.480469-4.40625-.875c-.078125-.042969-.125-.082031-.1875-.125.34375-1.660156.773438-3.65625 1.0625-4.75 0-.011719 0-.019531 0-.03125.160156-.722656.519531-1.324219.875-1.71875s.757813-.5.65625-.5zm-7 7c1.160156 0 1.957031.769531 2 1.90625v.03125c-.042969.1875-.03125.382813.03125.5625.007813.03125.019531.0625.03125.09375.195313 1.949219 1.292969 3.253906 2.625 3.8125 1.464844.617188 3.0625.59375 4.3125.59375 1.277344 0 2.894531-.015625 4.34375-.65625 1.347656-.597656 2.472656-1.945312 2.625-3.90625.042969-.140625.054688-.292969.03125-.4375 0-.011719 0-.019531 0-.03125.003906-.042969.003906-.082031 0-.125.066406-1.105469.863281-1.84375 2-1.84375 1.191406 0 2 .808594 2 2 0 1.742188-.378906 3.394531-1.84375 4.6875s-4.195312 2.3125-9.15625 2.3125c-4.964844 0-7.695312-1-9.15625-2.28125-1.460937-1.28125-1.84375-2.921875-1.84375-4.71875 0-1.191406.808594-2 2-2zm4 2.0625c1.058594.515625 2.617188.9375 5 .9375 2.382813 0 3.941406-.421875 5-.9375-.015625 1.542969-.558594 2.035156-1.46875 2.4375-.925781.410156-2.308594.5-3.53125.5-1.25 0-2.652344-.023437-3.5625-.40625-.898437-.378906-1.425781-.875-1.4375-2.53125z"/></svg>